<svg xmlns="http://www.w3.org/2000/svg" xmlns:xlink="http://www.w3.org/1999/xlink" viewBox="0 0 148.52 59.21"><defs><style>.cls-1,.cls-2{fill:none;}.cls-2{clip-rule:evenodd;}.cls-3{clip-path:url(#clip-path);}.cls-4{clip-path:url(#clip-path-2);}.cls-5{clip-path:url(#clip-path-3);}.cls-6{clip-path:url(#clip-path-4);}.cls-7{fill:url(#linear-gradient);}.cls-8{font-size:22.22px;}.cls-10,.cls-8,.cls-9{fill:#333;}.cls-10,.cls-8{font-family:Prototype, Prototype;}.cls-9{fill-rule:evenodd;}.cls-10{font-size:9.61px;}</style><clipPath id="clip-path" transform="translate(-0.31 -0.12)"><rect class="cls-1" y="1" width="71" height="53"/></clipPath><clipPath id="clip-path-2" transform="translate(-0.31 -0.12)"><path class="cls-1" d="M68.92,13.95s2.32,0,1-2.36c0,0-2.36-4.07-5.29-5.59,0,0-2.54-4.07-5.42-4.11,0,0,0,3,1.79,4.19,0,0-2.58,3.26-3.34,3.63a6.23,6.23,0,0,1-4.26-.39A38.75,38.75,0,0,0,42.39,4S31.55.93,24.73,13.69a57.39,57.39,0,0,0-2.88,8.22S16.68,41.75,11.09,42.27c0,0-4.37,4.2-10.32-5.42,0,0,3.67,11.19,12.42,7.69,0,0,7.34-3.32,10.66-13.28,0,0,6.64-10,8.92-5.6,0,0-1.57,8-5.25,12,0,0-.7.79.35,1.93,0,0,8,1.66,10.32,14.25,0,0,6.64-8.74-5.25-15.73,0,0,11.72-11.89,10.32-17l7.51.52s.31,3.28-5.2,5a7.37,7.37,0,0,0,6.51-3.5,100.59,100.59,0,0,1,8.13-6.08c2.36-1.36,1.79-3.1,3.5-3.41a21.78,21.78,0,0,1,5.2.26"/></clipPath><clipPath id="clip-path-3" transform="translate(-0.31 -0.12)"><rect class="cls-1" width="72" height="55"/></clipPath><clipPath id="clip-path-4" transform="translate(-0.31 -0.12)"><polygon class="cls-2" points="1.77 0.12 1.73 1.26 1.73 1.57 1.72 1.77 1.71 2.07 1.7 2.38 1.7 2.58 1.7 2.68 1.69 2.98 1.68 3.19 1.67 3.49 1.67 3.59 1.66 3.8 1.66 4 1.65 4.2 1.65 4.61 1.64 4.81 1.63 5.02 1.63 5.22 1.62 5.42 1.61 5.62 1.61 5.73 1.61 5.83 1.6 5.93 1.6 6.23 1.59 6.43 1.59 6.54 1.58 6.84 1.57 7.04 1.57 7.15 1.57 7.25 1.57 7.35 1.56 7.65 1.55 7.86 1.55 8.06 1.54 8.26 1.53 8.46 1.53 8.66 1.52 8.87 1.52 9.27 1.51 9.48 1.5 9.68 1.5 9.78 1.49 10.09 1.48 10.29 1.48 10.7 1.47 10.89 1.47 11 1.47 11.1 1.46 11.2 1.45 11.5 1.45 11.71 1.44 11.91 1.43 12.11 1.43 12.52 1.42 12.72 1.41 12.93 1.41 13.13 1.4 13.33 1.4 13.53 1.39 13.74 1.39 13.94 1.38 14.14 1.38 14.34 1.37 14.55 1.36 14.75 1.35 14.95 1.35 15.05 1.35 15.36 1.34 15.56 1.34 15.77 1.33 15.86 1.32 16.17 1.32 16.37 1.31 16.78 1.3 16.98 1.3 17.18 1.29 17.39 1.28 17.59 1.28 17.79 1.27 18 1.27 18.1 1.27 18.1 1.27 18.2 1.26 18.61 1.25 18.8 1.25 18.91 1.24 19.21 1.23 19.41 1.23 19.62 1.23 19.72 1.22 20.02 1.21 20.23 1.21 20.43 1.2 20.53 1.2 20.84 1.19 21.04 1.19 21.14 1.18 21.24 1.18 21.44 1.17 21.65 1.17 21.85 1.16 22.05 1.16 22.25 1.15 22.46 1.15 22.66 1.14 22.76 1.13 23.07 1.13 23.27 1.12 23.57 1.11 23.88 1.1 24.08 1.1 24.18 1.1 24.18 1.1 24.29 1.09 24.38 1.09 24.69 1.07 25.09 1.07 25.5 1.06 25.7 1.05 26.11 1.04 26.31 1.04 26.41 1.04 26.52 1.03 26.62 1.03 26.92 1.02 27.12 1.01 27.53 1 27.73 1 27.93 0.99 28.24 0.98 28.54 0.98 28.75 0.97 28.95 0.96 29.15 0.96 29.35 0.95 29.66 0.94 29.96 0.94 30.16 0.93 30.37 0.92 30.77 0.91 31.18 0.91 31.28 0.9 31.59 0.89 31.79 0.89 31.99 0.88 32.09 0.88 32.4 0.87 32.6 0.86 32.8 0.86 33 0.85 33.21 0.85 33.41 0.84 33.51 0.84 33.82 0.83 34.02 0.82 34.22 0.82 34.32 0.82 34.33 0.82 34.43 0.81 34.83 0.8 35.03 0.8 35.13 0.79 35.44 0.78 35.84 0.77 36.25 0.76 36.55 0.76 36.66 0.75 36.86 0.74 37.27 0.74 37.36 0.73 37.67 0.72 37.87 0.72 38.07 0.71 38.18 0.71 38.48 0.7 38.68 0.7 38.79 0.69 38.89 0.69 38.99 0.68 39.29 0.68 39.5 0.68 39.6 0.68 39.6 0.67 39.7 0.66 40.1 0.66 40.3 0.65 40.51 0.65 40.61 0.64 40.91 0.63 41.22 0.63 41.52 0.61 41.83 0.61 41.83 0.61 41.93 0.61 42.03 0.6 42.34 0.59 42.64 0.59 42.74 0.59 42.84 0.58 43.15 0.57 43.35 0.57 43.45 0.56 43.75 0.56 43.96 0.55 44.16 0.54 44.36 0.54 44.57 0.53 44.77 0.53 44.97 0.52 45.18 0.52 45.38 0.51 45.58 0.51 45.68 0.51 45.69 0.5 45.78 0.5 45.89 0.5 46.19 0.48 46.59 0.48 46.7 0.47 47 0.47 47.2 0.46 47.61 0.45 47.81 0.44 48.01 0.44 48.22 0.43 48.42 0.43 48.62 0.42 48.82 0.41 49.03 0.41 49.23 0.4 49.43 0.4 49.84 0.39 50.04 0.38 50.25 0.37 50.55 0.36 50.85 0.36 51.05 0.35 51.26 0.34 51.66 0.33 51.97 0.32 52.27 0.32 52.48 0.31 52.68 0.31 52.79 0.31 52.88 70.1 54.77 70.1 54.66 70.1 54.56 70.11 54.56 70.12 53.95 70.12 53.95 70.13 53.75 70.13 53.45 70.14 53.25 70.14 53.14 70.15 52.94 70.15 52.73 70.16 52.53 70.16 52.53 70.17 52.13 70.18 51.93 70.18 51.72 70.19 51.52 70.19 51.32 70.2 51.01 70.2 50.91 70.21 50.71 70.22 50.4 70.22 50.3 70.22 50.1 70.23 50.1 70.23 49.9 70.24 49.7 70.25 49.29 70.25 49.29 70.25 49.09 70.26 48.78 70.26 48.68 70.27 48.68 70.27 48.48 70.27 48.28 70.28 48.18 70.28 48.17 70.28 48.07 70.28 47.87 70.29 47.87 70.29 47.67 70.3 47.36 70.31 47.26 70.31 46.85 70.32 46.65 70.32 46.45 70.33 46.25 70.34 46.04 70.34 45.84 70.35 45.43 70.36 45.23 70.36 45.03 70.37 44.83 70.38 44.63 70.38 44.63 70.38 44.42 70.38 44.32 70.39 44.22 70.39 44.02 70.39 44.02 70.4 43.61 70.41 43.41 70.41 43.2 70.42 43.2 70.42 43 70.42 42.9 70.43 42.8 70.43 42.59 70.44 42.19 70.44 42.09 70.44 42.09 70.45 41.99 70.46 41.68 70.46 41.58 70.47 41.38 70.47 41.18 70.48 40.77 70.48 40.77 70.49 40.57 70.49 40.36 70.5 40.16 70.5 39.96 70.51 39.86 70.51 39.85 70.51 39.75 70.52 39.55 70.52 39.35 70.52 39.35 70.53 38.95 70.54 38.64 70.54 38.54 70.55 38.34 70.56 38.13 70.56 37.83 70.57 37.73 70.57 37.52 70.58 37.32 70.58 37.12 70.59 36.92 70.59 36.81 70.59 36.72 70.6 36.51 70.61 36.31 70.61 36.1 70.62 35.9 70.63 35.6 70.63 35.5 70.63 35.5 70.63 35.29 70.64 35.09 70.64 34.89 70.65 34.69 70.65 34.69 70.66 34.48 70.66 34.18 70.66 34.08 70.67 34.08 70.68 33.67 70.69 33.27 70.7 32.86 70.71 32.66 70.72 32.25 70.72 32.25 70.72 32.05 70.73 31.95 70.73 31.84 70.73 31.64 70.74 31.44 70.75 31.24 70.75 30.83 70.76 30.83 70.76 30.63 70.77 30.32 70.77 30.22 70.78 30.02 70.78 29.82 70.78 29.71 70.79 29.61 70.8 29.41 70.8 29.21 70.81 28.9 70.81 28.8 70.82 28.6 70.82 28.4 70.83 28.2 70.84 27.99 70.84 27.59 70.85 27.38 70.86 27.18 70.86 26.98 70.87 26.77 70.87 26.68 70.87 26.67 70.88 26.57 70.88 26.37 70.88 26.16 70.89 26.16 70.89 25.96 70.89 25.87 70.89 25.76 70.9 25.56 70.91 25.36 70.91 25.15 70.92 24.75 70.93 24.75 70.93 24.34 70.94 24.13 70.94 23.93 70.95 23.73 70.96 23.53 70.97 23.23 70.97 23.13 70.97 22.92 70.98 22.72 70.98 22.52 70.99 22.31 71 22.11 71 21.9 71.01 21.7 71.01 21.5 71.02 21.4 71.02 21.4 71.02 21.3 71.03 21 71.03 20.89 71.03 20.89 71.03 20.69 71.04 20.49 71.05 20.18 71.05 20.08 71.06 20.08 71.06 19.68 71.07 19.47 71.07 19.27 71.08 19.17 71.08 19.07 71.09 18.76 71.09 18.66 71.1 18.46 71.1 18.25 71.11 17.95 71.11 17.85 71.12 17.65 71.12 17.65 71.13 17.45 71.13 17.14 71.13 17.04 71.14 17.04 71.14 16.84 71.15 16.53 71.15 16.43 71.16 16.23 71.16 16.23 71.16 16.02 71.17 15.72 71.18 15.62 71.18 15.42 71.18 15.21 71.19 15.01 71.19 14.81 71.2 14.61 71.21 14.3 71.22 14.2 71.22 13.79 71.23 13.79 71.23 13.59 71.23 13.49 71.23 13.39 71.24 13.18 71.25 12.98 71.25 12.78 71.26 12.57 71.26 12.38 71.27 12.38 71.27 11.97 71.28 11.76 71.28 11.56 71.29 11.36 71.29 11.26 71.3 11.16 71.31 10.95 71.31 10.75 71.32 10.45 71.32 10.34 71.32 10.14 71.33 9.94 71.34 9.74 71.34 9.54 71.35 9.13 71.36 8.93 71.36 8.72 71.37 8.52 71.38 8.32 71.38 8.22 71.38 8.21 71.38 8.11 71.39 7.71 71.39 7.71 71.4 7.51 71.4 7.3 71.41 7 71.41 6.9 71.42 6.7 71.43 6.29 71.43 6.29 71.44 6.09 71.44 5.99 71.44 5.88 71.45 5.58 71.45 5.48 71.46 5.27 71.47 5.07 71.47 4.86 71.48 4.46 71.49 4.26 71.49 4.06 71.5 3.85 71.5 3.85 71.5 3.65 71.51 3.35 71.52 3.25 71.55 2 37.22 1.08 1.77 0.12"/></clipPath><linearGradient id="linear-gradient" x1="731.64" y1="49.49" x2="733.66" y2="-48.62" gradientTransform="matrix(0.75, 0, 0, -0.75, -513.89, 26.54)" gradientUnits="userSpaceOnUse"><stop offset="0" stop-color="#183668"/><stop offset="0.11" stop-color="#081e34"/><stop offset="0.43" stop-color="#0b99e6"/><stop offset="1" stop-color="#1b2350"/></linearGradient></defs><title>logo-sm</title><g id="Layer_2" data-name="Layer 2"><g id="Layer_1-2" data-name="Layer 1"><g class="cls-3"><g class="cls-4"><g class="cls-5"><g class="cls-6"><rect class="cls-7" width="71.24" height="54.65"/></g></g></g></g><text class="cls-8" transform="translate(39.47 46.88)">ANGAROO</text><path class="cls-9" d="M23.73,30.38V47.8a.22.22,0,0,0,.25.25H27.1a.22.22,0,0,0,.25-.25V30.38a.22.22,0,0,0-.25-.25H24a.22.22,0,0,0-.25.25" transform="translate(-0.31 -0.12)"/><text class="cls-10" transform="translate(102.9 57.02)">DELIVERY</text></g></g></svg>