<svg xmlns="http://www.w3.org/2000/svg" xmlns:xlink="http://www.w3.org/1999/xlink" viewBox="0 0 148.52 79.11"><defs><style>.cls-1,.cls-2{fill:none;}.cls-2{clip-rule:evenodd;}.cls-3{clip-path:url(#clip-path);}.cls-4{clip-path:url(#clip-path-2);}.cls-5{clip-path:url(#clip-path-3);}.cls-6{clip-path:url(#clip-path-4);}.cls-7{fill:url(#linear-gradient);}.cls-8{font-size:22.22px;}.cls-10,.cls-8,.cls-9{fill:#333;}.cls-10,.cls-8{font-family:Prototype, Prototype;}.cls-100,.cls-101,.cls-102,.cls-103,.cls-104,.cls-105,.cls-106,.cls-107,.cls-108,.cls-109,.cls-110,.cls-111,.cls-112,.cls-113,.cls-114,.cls-115,.cls-116,.cls-117,.cls-118,.cls-119,.cls-120,.cls-121,.cls-122,.cls-123,.cls-124,.cls-125,.cls-126,.cls-127,.cls-128,.cls-129,.cls-13,.cls-130,.cls-131,.cls-132,.cls-133,.cls-134,.cls-135,.cls-136,.cls-137,.cls-138,.cls-139,.cls-14,.cls-140,.cls-141,.cls-142,.cls-143,.cls-144,.cls-145,.cls-146,.cls-147,.cls-148,.cls-149,.cls-15,.cls-150,.cls-151,.cls-152,.cls-153,.cls-154,.cls-155,.cls-156,.cls-157,.cls-158,.cls-159,.cls-16,.cls-160,.cls-161,.cls-162,.cls-163,.cls-164,.cls-165,.cls-166,.cls-167,.cls-168,.cls-169,.cls-17,.cls-170,.cls-171,.cls-172,.cls-173,.cls-174,.cls-175,.cls-176,.cls-177,.cls-178,.cls-179,.cls-18,.cls-180,.cls-181,.cls-182,.cls-183,.cls-184,.cls-185,.cls-186,.cls-187,.cls-188,.cls-189,.cls-19,.cls-190,.cls-191,.cls-192,.cls-193,.cls-194,.cls-195,.cls-196,.cls-197,.cls-198,.cls-199,.cls-20,.cls-200,.cls-201,.cls-202,.cls-203,.cls-204,.cls-205,.cls-206,.cls-207,.cls-208,.cls-209,.cls-21,.cls-210,.cls-211,.cls-212,.cls-213,.cls-214,.cls-215,.cls-216,.cls-217,.cls-218,.cls-219,.cls-22,.cls-23,.cls-24,.cls-25,.cls-26,.cls-27,.cls-28,.cls-29,.cls-30,.cls-31,.cls-32,.cls-33,.cls-34,.cls-35,.cls-36,.cls-37,.cls-38,.cls-39,.cls-40,.cls-41,.cls-42,.cls-43,.cls-44,.cls-45,.cls-46,.cls-47,.cls-48,.cls-49,.cls-50,.cls-51,.cls-52,.cls-53,.cls-54,.cls-55,.cls-56,.cls-57,.cls-58,.cls-59,.cls-60,.cls-61,.cls-62,.cls-63,.cls-64,.cls-65,.cls-66,.cls-67,.cls-68,.cls-69,.cls-70,.cls-71,.cls-72,.cls-73,.cls-74,.cls-75,.cls-76,.cls-77,.cls-78,.cls-79,.cls-80,.cls-81,.cls-82,.cls-83,.cls-84,.cls-85,.cls-86,.cls-87,.cls-88,.cls-89,.cls-9,.cls-90,.cls-91,.cls-92,.cls-93,.cls-94,.cls-95,.cls-96,.cls-97,.cls-98,.cls-99{fill-rule:evenodd;}.cls-10{font-size:9.61px;}.cls-11{clip-path:url(#clip-path-5);}.cls-12{clip-path:url(#clip-path-6);}.cls-13{fill:#202256;}.cls-14{fill:#202357;}.cls-15{fill:#1f2559;}.cls-16{fill:#1f265a;}.cls-17{fill:#1e275c;}.cls-18{fill:#1e295d;}.cls-19{fill:#1e2a5f;}.cls-20{fill:#1d2c60;}.cls-21{fill:#1d2d62;}.cls-22{fill:#1c2e63;}.cls-23{fill:#1c3065;}.cls-24{fill:#1c3166;}.cls-25{fill:#1b3268;}.cls-26{fill:#1b3469;}.cls-27{fill:#1a356b;}.cls-28{fill:#1a366c;}.cls-29{fill:#19386e;}.cls-30{fill:#19396f;}.cls-31{fill:#193b71;}.cls-32{fill:#183c72;}.cls-33{fill:#183d74;}.cls-34{fill:#173f75;}.cls-35{fill:#174077;}.cls-36{fill:#174178;}.cls-37{fill:#16437a;}.cls-38{fill:#16447b;}.cls-39{fill:#15457d;}.cls-40{fill:#15477e;}.cls-41{fill:#154880;}.cls-42{fill:#144981;}.cls-43{fill:#144b83;}.cls-44{fill:#134c84;}.cls-45{fill:#134e85;}.cls-46{fill:#134f87;}.cls-47{fill:#125088;}.cls-48{fill:#12528a;}.cls-49{fill:#11538b;}.cls-50{fill:#11548d;}.cls-51{fill:#11558d;}.cls-52{fill:#11558e;}.cls-53{fill:#10568f;}.cls-54{fill:#105790;}.cls-55{fill:#105890;}.cls-56{fill:#105891;}.cls-57{fill:#105992;}.cls-58{fill:#0f5992;}.cls-59{fill:#0f5a93;}.cls-60{fill:#0f5b94;}.cls-61{fill:#0f5c95;}.cls-62{fill:#0f5c96;}.cls-63{fill:#0e5d96;}.cls-64{fill:#0e5e97;}.cls-65{fill:#0e5f98;}.cls-66{fill:#0e5f99;}.cls-67{fill:#0d6099;}.cls-68{fill:#0d609a;}.cls-69{fill:#0d619b;}.cls-70{fill:#0d629b;}.cls-71{fill:#0d629c;}.cls-72{fill:#0d639d;}.cls-73{fill:#0c639d;}.cls-74{fill:#0c649e;}.cls-75{fill:#0c659e;}.cls-76{fill:#0c659f;}.cls-77{fill:#0c66a0;}.cls-78{fill:#0b67a1;}.cls-79{fill:#0b67a2;}.cls-80{fill:#0b68a2;}.cls-81{fill:#0b69a3;}.cls-82{fill:#0b69a4;}.cls-83{fill:#0a6aa4;}.cls-84{fill:#0a6aa5;}.cls-85{fill:#0a6ba5;}.cls-86{fill:#0a6ca6;}.cls-87{fill:#0a6ca7;}.cls-88{fill:#0a6da7;}.cls-89{fill:#096da8;}.cls-90{fill:#096ea9;}.cls-91{fill:#096faa;}.cls-92{fill:#0970ab;}.cls-93{fill:#0871ac;}.cls-94{fill:#0872ad;}.cls-95{fill:#0873ae;}.cls-96{fill:#0774af;}.cls-97{fill:#0774b0;}.cls-98{fill:#0775b0;}.cls-99{fill:#0775b1;}.cls-100{fill:#0776b2;}.cls-101{fill:#0777b2;}.cls-102{fill:#0677b3;}.cls-103{fill:#0678b3;}.cls-104{fill:#0678b4;}.cls-105{fill:#0679b5;}.cls-106{fill:#067ab5;}.cls-107{fill:#067ab6;}.cls-108{fill:#057bb7;}.cls-109{fill:#057cb8;}.cls-110{fill:#057cb9;}.cls-111{fill:#057db9;}.cls-112{fill:#057eba;}.cls-113{fill:#047eba;}.cls-114{fill:#047fbb;}.cls-115{fill:#047fbc;}.cls-116{fill:#0480bc;}.cls-117{fill:#0481bd;}.cls-118{fill:#0381be;}.cls-119{fill:#0382be;}.cls-120{fill:#0382bf;}.cls-121{fill:#0383c0;}.cls-122{fill:#0384c1;}.cls-123{fill:#0285c1;}.cls-124{fill:#0285c2;}.cls-125{fill:#0286c3;}.cls-126{fill:#0384c0;}.cls-127{fill:#0481be;}.cls-128{fill:#0480bd;}.cls-129{fill:#057fbc;}.cls-130{fill:#057ebb;}.cls-131{fill:#057dba;}.cls-132{fill:#067cb8;}.cls-133{fill:#067bb8;}.cls-134{fill:#067bb7;}.cls-135{fill:#067ab7;}.cls-136{fill:#0779b6;}.cls-137{fill:#0779b5;}.cls-138{fill:#0778b5;}.cls-139{fill:#0778b4;}.cls-140{fill:#0777b3;}.cls-141{fill:#0876b2;}.cls-142{fill:#0875b2;}.cls-143{fill:#0875b1;}.cls-144{fill:#0874b0;}.cls-145{fill:#0974b0;}.cls-146{fill:#0973af;}.cls-147{fill:#0972ae;}.cls-148{fill:#0971ad;}.cls-149{fill:#0a71ad;}.cls-150{fill:#0a70ac;}.cls-151{fill:#0a6fab;}.cls-152{fill:#0a6faa;}.cls-153{fill:#0b6eaa;}.cls-154{fill:#0b6ea9;}.cls-155{fill:#0b6da9;}.cls-156{fill:#0b6ca8;}.cls-157{fill:#0b6ca7;}.cls-158{fill:#0c6ba7;}.cls-159{fill:#0c6ba6;}.cls-160{fill:#0c6aa6;}.cls-161{fill:#0c6aa5;}.cls-162{fill:#0c69a5;}.cls-163{fill:#0c69a4;}.cls-164{fill:#0d69a4;}.cls-165{fill:#0d68a4;}.cls-166{fill:#0d68a3;}.cls-167{fill:#0d67a3;}.cls-168{fill:#0d67a2;}.cls-169{fill:#0d66a2;}.cls-170{fill:#0d66a1;}.cls-171{fill:#0e66a1;}.cls-172{fill:#0e65a0;}.cls-173{fill:#0e64a0;}.cls-174{fill:#0e649f;}.cls-175{fill:#0e639f;}.cls-176{fill:#0f639e;}.cls-177{fill:#0f629d;}.cls-178{fill:#0f619c;}.cls-179{fill:#0f609b;}.cls-180{fill:#10609b;}.cls-181{fill:#105f9a;}.cls-182{fill:#105e99;}.cls-183{fill:#115d98;}.cls-184{fill:#115d97;}.cls-185{fill:#115c97;}.cls-186{fill:#115c96;}.cls-187{fill:#115b96;}.cls-188{fill:#125a95;}.cls-189{fill:#125a94;}.cls-190{fill:#125994;}.cls-191{fill:#125993;}.cls-192{fill:#125893;}.cls-193{fill:#135892;}.cls-194{fill:#135690;}.cls-195{fill:#14548e;}.cls-196{fill:#15528c;}.cls-197{fill:#15508a;}.cls-198{fill:#164f89;}.cls-199{fill:#174d87;}.cls-200{fill:#174b85;}.cls-201{fill:#184983;}.cls-202{fill:#194781;}.cls-203{fill:#19457f;}.cls-204{fill:#1a447d;}.cls-205{fill:#1a427b;}.cls-206{fill:#1b4079;}.cls-207{fill:#1c3e77;}.cls-208{fill:#1c3c75;}.cls-209{fill:#1d3a73;}.cls-210{fill:#1e3971;}.cls-211{fill:#1e376f;}.cls-212{fill:#1f356e;}.cls-213{fill:#20336c;}.cls-214{fill:#20316a;}.cls-215{fill:#212f68;}.cls-216{fill:#222e66;}.cls-217{fill:#222c64;}.cls-218{fill:#232a62;}.cls-219{fill:#fff;}.cls-220{font-size:6.01px;fill:#1a1a1a;font-family:CeraGR-Medium, CeraGR-Medium;}</style><clipPath id="clip-path" transform="translate(-0.31 -0.12)"><rect class="cls-1" y="1" width="71" height="53"/></clipPath><clipPath id="clip-path-2" transform="translate(-0.31 -0.12)"><path class="cls-1" d="M68.92,13.95s2.32,0,1-2.36c0,0-2.36-4.07-5.29-5.59,0,0-2.54-4.07-5.42-4.11,0,0,0,3,1.79,4.19,0,0-2.58,3.26-3.34,3.63a6.23,6.23,0,0,1-4.26-.39A38.75,38.75,0,0,0,42.39,4S31.55.93,24.73,13.69a57.39,57.39,0,0,0-2.88,8.22S16.68,41.75,11.09,42.27c0,0-4.37,4.2-10.32-5.42,0,0,3.67,11.19,12.42,7.69,0,0,7.34-3.32,10.66-13.28,0,0,6.64-10,8.92-5.6,0,0-1.57,8-5.25,12,0,0-.7.79.35,1.93,0,0,8,1.66,10.32,14.25,0,0,6.64-8.74-5.25-15.73,0,0,11.72-11.89,10.32-17l7.51.52s.31,3.28-5.2,5a7.37,7.37,0,0,0,6.51-3.5,100.59,100.59,0,0,1,8.13-6.08c2.36-1.36,1.79-3.1,3.5-3.41a21.78,21.78,0,0,1,5.2.26"/></clipPath><clipPath id="clip-path-3" transform="translate(-0.31 -0.12)"><rect class="cls-1" width="72" height="55"/></clipPath><clipPath id="clip-path-4" transform="translate(-0.31 -0.12)"><polygon class="cls-2" points="1.77 0.12 1.73 1.26 1.73 1.57 1.72 1.77 1.71 2.07 1.7 2.38 1.7 2.58 1.7 2.68 1.69 2.98 1.68 3.19 1.67 3.49 1.67 3.59 1.66 3.8 1.66 4 1.65 4.2 1.65 4.61 1.64 4.81 1.63 5.02 1.63 5.22 1.62 5.42 1.61 5.62 1.61 5.73 1.61 5.83 1.6 5.93 1.6 6.23 1.59 6.43 1.59 6.54 1.58 6.84 1.57 7.04 1.57 7.15 1.57 7.25 1.57 7.35 1.56 7.65 1.55 7.86 1.55 8.06 1.54 8.26 1.53 8.46 1.53 8.66 1.52 8.87 1.52 9.27 1.51 9.48 1.5 9.68 1.5 9.78 1.49 10.09 1.48 10.29 1.48 10.7 1.47 10.89 1.47 11 1.47 11.1 1.46 11.2 1.45 11.5 1.45 11.71 1.44 11.91 1.43 12.11 1.43 12.52 1.42 12.72 1.41 12.93 1.41 13.13 1.4 13.33 1.4 13.53 1.39 13.74 1.39 13.94 1.38 14.14 1.38 14.34 1.37 14.55 1.36 14.75 1.35 14.95 1.35 15.05 1.35 15.36 1.34 15.56 1.34 15.77 1.33 15.86 1.32 16.17 1.32 16.37 1.31 16.78 1.3 16.98 1.3 17.18 1.29 17.39 1.28 17.59 1.28 17.79 1.27 18 1.27 18.1 1.27 18.1 1.27 18.2 1.26 18.61 1.25 18.8 1.25 18.91 1.24 19.21 1.23 19.41 1.23 19.62 1.23 19.72 1.22 20.02 1.21 20.23 1.21 20.43 1.2 20.53 1.2 20.84 1.19 21.04 1.19 21.14 1.18 21.24 1.18 21.44 1.17 21.65 1.17 21.85 1.16 22.05 1.16 22.25 1.15 22.46 1.15 22.66 1.14 22.76 1.13 23.07 1.13 23.27 1.12 23.57 1.11 23.88 1.1 24.08 1.1 24.18 1.1 24.18 1.1 24.29 1.09 24.38 1.09 24.69 1.07 25.09 1.07 25.5 1.06 25.7 1.05 26.11 1.04 26.31 1.04 26.41 1.04 26.52 1.03 26.62 1.03 26.92 1.02 27.12 1.01 27.53 1 27.73 1 27.93 0.99 28.24 0.98 28.54 0.98 28.75 0.97 28.95 0.96 29.15 0.96 29.35 0.95 29.66 0.94 29.96 0.94 30.16 0.93 30.37 0.92 30.77 0.91 31.18 0.91 31.28 0.9 31.59 0.89 31.79 0.89 31.99 0.88 32.09 0.88 32.4 0.87 32.6 0.86 32.8 0.86 33 0.85 33.21 0.85 33.41 0.84 33.51 0.84 33.82 0.83 34.02 0.82 34.22 0.82 34.32 0.82 34.33 0.82 34.43 0.81 34.83 0.8 35.03 0.8 35.13 0.79 35.44 0.78 35.84 0.77 36.25 0.76 36.55 0.76 36.66 0.75 36.86 0.74 37.27 0.74 37.36 0.73 37.67 0.72 37.87 0.72 38.07 0.71 38.18 0.71 38.48 0.7 38.68 0.7 38.79 0.69 38.89 0.69 38.99 0.68 39.29 0.68 39.5 0.68 39.6 0.68 39.6 0.67 39.7 0.66 40.1 0.66 40.3 0.65 40.51 0.65 40.61 0.64 40.91 0.63 41.22 0.63 41.52 0.61 41.83 0.61 41.83 0.61 41.93 0.61 42.03 0.6 42.34 0.59 42.64 0.59 42.74 0.59 42.84 0.58 43.15 0.57 43.35 0.57 43.45 0.56 43.75 0.56 43.96 0.55 44.16 0.54 44.36 0.54 44.57 0.53 44.77 0.53 44.97 0.52 45.18 0.52 45.38 0.51 45.58 0.51 45.68 0.51 45.69 0.5 45.78 0.5 45.89 0.5 46.19 0.48 46.59 0.48 46.7 0.47 47 0.47 47.2 0.46 47.61 0.45 47.81 0.44 48.01 0.44 48.22 0.43 48.42 0.43 48.62 0.42 48.82 0.41 49.03 0.41 49.23 0.4 49.43 0.4 49.84 0.39 50.04 0.38 50.25 0.37 50.55 0.36 50.85 0.36 51.05 0.35 51.26 0.34 51.66 0.33 51.97 0.32 52.27 0.32 52.48 0.31 52.68 0.31 52.79 0.31 52.88 70.1 54.77 70.1 54.66 70.1 54.56 70.11 54.56 70.12 53.95 70.12 53.95 70.13 53.75 70.13 53.45 70.14 53.25 70.14 53.14 70.15 52.94 70.15 52.73 70.16 52.53 70.16 52.53 70.17 52.13 70.18 51.93 70.18 51.72 70.19 51.52 70.19 51.32 70.2 51.01 70.2 50.91 70.21 50.71 70.22 50.4 70.22 50.3 70.22 50.1 70.23 50.1 70.23 49.9 70.24 49.7 70.25 49.29 70.25 49.29 70.25 49.09 70.26 48.78 70.26 48.68 70.27 48.68 70.27 48.48 70.27 48.28 70.28 48.18 70.28 48.17 70.28 48.07 70.28 47.87 70.29 47.87 70.29 47.67 70.3 47.36 70.31 47.26 70.31 46.85 70.32 46.65 70.32 46.45 70.33 46.25 70.34 46.04 70.34 45.84 70.35 45.43 70.36 45.23 70.36 45.03 70.37 44.83 70.38 44.63 70.38 44.63 70.38 44.42 70.38 44.32 70.39 44.22 70.39 44.02 70.39 44.02 70.4 43.61 70.41 43.41 70.41 43.2 70.42 43.2 70.42 43 70.42 42.9 70.43 42.8 70.43 42.59 70.44 42.19 70.44 42.09 70.44 42.09 70.45 41.99 70.46 41.68 70.46 41.58 70.47 41.38 70.47 41.18 70.48 40.77 70.48 40.77 70.49 40.57 70.49 40.36 70.5 40.16 70.5 39.96 70.51 39.86 70.51 39.85 70.51 39.75 70.52 39.55 70.52 39.35 70.52 39.35 70.53 38.95 70.54 38.64 70.54 38.54 70.55 38.34 70.56 38.13 70.56 37.83 70.57 37.73 70.57 37.52 70.58 37.32 70.58 37.12 70.59 36.92 70.59 36.81 70.59 36.72 70.6 36.51 70.61 36.31 70.61 36.1 70.62 35.9 70.63 35.6 70.63 35.5 70.63 35.5 70.63 35.29 70.64 35.09 70.64 34.89 70.65 34.69 70.65 34.69 70.66 34.48 70.66 34.18 70.66 34.08 70.67 34.08 70.68 33.67 70.69 33.27 70.7 32.86 70.71 32.66 70.72 32.25 70.72 32.25 70.72 32.05 70.73 31.95 70.73 31.84 70.73 31.64 70.74 31.44 70.75 31.24 70.75 30.83 70.76 30.83 70.76 30.63 70.77 30.32 70.77 30.22 70.78 30.02 70.78 29.82 70.78 29.71 70.79 29.61 70.8 29.41 70.8 29.21 70.81 28.9 70.81 28.8 70.82 28.6 70.82 28.4 70.83 28.2 70.84 27.99 70.84 27.59 70.85 27.38 70.86 27.18 70.86 26.98 70.87 26.77 70.87 26.68 70.87 26.67 70.88 26.57 70.88 26.37 70.88 26.16 70.89 26.16 70.89 25.96 70.89 25.87 70.89 25.76 70.9 25.56 70.91 25.36 70.91 25.15 70.92 24.75 70.93 24.75 70.93 24.34 70.94 24.13 70.94 23.93 70.95 23.73 70.96 23.53 70.97 23.23 70.97 23.13 70.97 22.92 70.98 22.72 70.98 22.52 70.99 22.31 71 22.11 71 21.9 71.01 21.7 71.01 21.5 71.02 21.4 71.02 21.4 71.02 21.3 71.03 21 71.03 20.89 71.03 20.89 71.03 20.69 71.04 20.49 71.05 20.18 71.05 20.08 71.06 20.08 71.06 19.68 71.07 19.47 71.07 19.27 71.08 19.17 71.08 19.07 71.09 18.76 71.09 18.66 71.1 18.46 71.1 18.25 71.11 17.95 71.11 17.85 71.12 17.65 71.12 17.65 71.13 17.45 71.13 17.14 71.13 17.04 71.14 17.04 71.14 16.84 71.15 16.53 71.15 16.43 71.16 16.23 71.16 16.23 71.16 16.02 71.17 15.72 71.18 15.62 71.18 15.42 71.18 15.21 71.19 15.01 71.19 14.81 71.2 14.61 71.21 14.3 71.22 14.2 71.22 13.79 71.23 13.79 71.23 13.59 71.23 13.49 71.23 13.39 71.24 13.18 71.25 12.98 71.25 12.78 71.26 12.57 71.26 12.38 71.27 12.38 71.27 11.97 71.28 11.76 71.28 11.56 71.29 11.36 71.29 11.26 71.3 11.16 71.31 10.95 71.31 10.75 71.32 10.45 71.32 10.34 71.32 10.14 71.33 9.94 71.34 9.74 71.34 9.54 71.35 9.13 71.36 8.93 71.36 8.72 71.37 8.52 71.38 8.32 71.38 8.22 71.38 8.21 71.38 8.11 71.39 7.71 71.39 7.71 71.4 7.51 71.4 7.3 71.41 7 71.41 6.9 71.42 6.7 71.43 6.29 71.43 6.29 71.44 6.09 71.44 5.99 71.44 5.88 71.45 5.58 71.45 5.48 71.46 5.27 71.47 5.07 71.47 4.86 71.48 4.46 71.49 4.26 71.49 4.06 71.5 3.85 71.5 3.85 71.5 3.65 71.51 3.35 71.52 3.25 71.55 2 37.22 1.08 1.77 0.12"/></clipPath><linearGradient id="linear-gradient" x1="731.64" y1="49.49" x2="733.66" y2="-48.62" gradientTransform="matrix(0.75, 0, 0, -0.75, -513.89, 26.54)" gradientUnits="userSpaceOnUse"><stop offset="0" stop-color="#183668"/><stop offset="0.11" stop-color="#081e34"/><stop offset="0.43" stop-color="#0b99e6"/><stop offset="1" stop-color="#1b2350"/></linearGradient><clipPath id="clip-path-5" transform="translate(-0.31 -0.12)"><rect class="cls-1" x="23" y="63" width="125" height="6"/></clipPath><clipPath id="clip-path-6" transform="translate(-0.31 -0.12)"><path class="cls-1" d="M26.42,63.09H144.7a2.67,2.67,0,0,1,0,5.34H26.42a2.67,2.67,0,1,1,0-5.34"/></clipPath></defs><title>logo-full</title><g id="Layer_2" data-name="Layer 2"><g id="Layer_1-2" data-name="Layer 1"><g class="cls-3"><g class="cls-4"><g class="cls-5"><g class="cls-6"><rect class="cls-7" width="71.24" height="54.65"/></g></g></g></g><text class="cls-8" transform="translate(39.47 46.88)">ANGAROO</text><path class="cls-9" d="M23.73,30.38V47.8a.22.22,0,0,0,.25.25H27.1a.22.22,0,0,0,.25-.25V30.38a.22.22,0,0,0-.25-.25H24a.22.22,0,0,0-.25.25" transform="translate(-0.31 -0.12)"/><text class="cls-10" transform="translate(102.9 57.02)">DELIVERY</text><g class="cls-11"><g class="cls-12"><g class="cls-11"><polyline class="cls-13" points="23.44 62.97 23.68 62.97 23.68 68.31 23.44 68.31"/><polyline class="cls-14" points="23.44 62.97 24.17 62.97 24.17 68.31 23.44 68.31"/><polyline class="cls-15" points="23.93 62.97 24.65 62.97 24.65 68.31 23.93 68.31"/><polyline class="cls-16" points="24.41 62.97 25.13 62.97 25.13 68.31 24.41 68.31"/><polyline class="cls-17" points="24.89 62.97 25.62 62.97 25.62 68.31 24.89 68.31"/><polyline class="cls-18" points="25.38 62.97 26.1 62.97 26.1 68.31 25.38 68.31"/><polyline class="cls-19" points="25.86 62.97 26.58 62.97 26.58 68.31 25.86 68.31"/><polyline class="cls-20" points="26.34 62.97 27.06 62.97 27.06 68.31 26.34 68.31"/><polyline class="cls-21" points="26.82 62.97 27.55 62.97 27.55 68.31 26.82 68.31"/><polyline class="cls-22" points="27.3 62.97 28.03 62.97 28.03 68.31 27.3 68.31"/><polyline class="cls-23" points="27.79 62.97 28.51 62.97 28.51 68.31 27.79 68.31"/><polyline class="cls-24" points="28.27 62.97 29 62.97 29 68.31 28.27 68.31"/><polyline class="cls-25" points="28.75 62.97 29.48 62.97 29.48 68.31 28.75 68.31"/><polyline class="cls-26" points="29.24 62.97 29.96 62.97 29.96 68.31 29.24 68.31"/><polyline class="cls-27" points="29.72 62.97 30.45 62.97 30.45 68.31 29.72 68.31"/><polyline class="cls-28" points="30.2 62.97 30.93 62.97 30.93 68.31 30.2 68.31"/><polyline class="cls-29" points="30.69 62.97 31.41 62.97 31.41 68.31 30.69 68.31"/><polyline class="cls-30" points="31.17 62.97 31.89 62.97 31.89 68.31 31.17 68.31"/><polyline class="cls-31" points="31.65 62.97 32.38 62.97 32.38 68.31 31.65 68.31"/><polyline class="cls-32" points="32.13 62.97 32.86 62.97 32.86 68.31 32.13 68.31"/><polyline class="cls-33" points="32.62 62.97 33.34 62.97 33.34 68.31 32.62 68.31"/><polyline class="cls-34" points="33.1 62.97 33.82 62.97 33.82 68.31 33.1 68.31"/><polyline class="cls-35" points="33.58 62.97 34.31 62.97 34.31 68.31 33.58 68.31"/><polyline class="cls-36" points="34.07 62.97 34.79 62.97 34.79 68.31 34.07 68.31"/><polyline class="cls-37" points="34.55 62.97 35.27 62.97 35.27 68.31 34.55 68.31"/><polyline class="cls-38" points="35.03 62.97 35.75 62.97 35.75 68.31 35.03 68.31"/><polyline class="cls-39" points="35.52 62.97 36.24 62.97 36.24 68.31 35.52 68.31"/><polyline class="cls-40" points="36 62.97 36.72 62.97 36.72 68.31 36 68.31"/><polyline class="cls-41" points="36.48 62.97 37.2 62.97 37.2 68.31 36.48 68.31"/><polyline class="cls-42" points="36.96 62.97 37.69 62.97 37.69 68.31 36.96 68.31"/><polyline class="cls-43" points="37.45 62.97 38.17 62.97 38.17 68.31 37.45 68.31"/><polyline class="cls-44" points="37.93 62.97 38.65 62.97 38.65 68.31 37.93 68.31"/><polyline class="cls-45" points="38.41 62.97 39.14 62.97 39.14 68.31 38.41 68.31"/><polyline class="cls-46" points="38.89 62.97 39.62 62.97 39.62 68.31 38.89 68.31"/><polyline class="cls-47" points="39.38 62.97 40.1 62.97 40.1 68.31 39.38 68.31"/><polyline class="cls-48" points="39.86 62.97 40.59 62.97 40.59 68.31 39.86 68.31"/><polyline class="cls-49" points="40.34 62.97 41.07 62.97 41.07 68.31 40.34 68.31"/><polyline class="cls-50" points="40.82 62.97 41.55 62.97 41.55 68.31 40.82 68.31"/><polyline class="cls-51" points="41.31 62.97 42.03 62.97 42.03 68.31 41.31 68.31"/><polyline class="cls-52" points="41.79 62.97 42.52 62.97 42.52 68.31 41.79 68.31"/><polyline class="cls-53" points="42.27 62.97 43 62.97 43 68.31 42.27 68.31"/><polyline class="cls-53" points="42.76 62.97 43.48 62.97 43.48 68.31 42.76 68.31"/><polyline class="cls-54" points="43.24 62.97 43.96 62.97 43.96 68.31 43.24 68.31"/><polyline class="cls-55" points="43.72 62.97 44.45 62.97 44.45 68.31 43.72 68.31"/><polyline class="cls-56" points="44.21 62.97 44.93 62.97 44.93 68.31 44.21 68.31"/><polyline class="cls-57" points="44.69 62.97 45.41 62.97 45.41 68.31 44.69 68.31"/><polyline class="cls-58" points="45.17 62.97 45.89 62.97 45.89 68.31 45.17 68.31"/><polyline class="cls-59" points="45.66 62.97 46.38 62.97 46.38 68.31 45.66 68.31"/><polyline class="cls-60" points="46.14 62.97 46.86 62.97 46.86 68.31 46.14 68.31"/><polyline class="cls-60" points="46.62 62.97 47.34 62.97 47.34 68.31 46.62 68.31"/><polyline class="cls-61" points="47.1 62.97 47.83 62.97 47.83 68.31 47.1 68.31"/><polyline class="cls-62" points="47.59 62.97 48.31 62.97 48.31 68.31 47.59 68.31"/><polyline class="cls-63" points="48.07 62.97 48.79 62.97 48.79 68.31 48.07 68.31"/><polyline class="cls-64" points="48.55 62.97 49.28 62.97 49.28 68.31 48.55 68.31"/><polyline class="cls-64" points="49.03 62.97 49.76 62.97 49.76 68.31 49.03 68.31"/><polyline class="cls-65" points="49.52 62.97 50.24 62.97 50.24 68.31 49.52 68.31"/><polyline class="cls-66" points="50 62.97 50.73 62.97 50.73 68.31 50 68.31"/><polyline class="cls-67" points="50.48 62.97 51.21 62.97 51.21 68.31 50.48 68.31"/><polyline class="cls-68" points="50.96 62.97 51.69 62.97 51.69 68.31 50.96 68.31"/><polyline class="cls-69" points="51.45 62.97 52.17 62.97 52.17 68.31 51.45 68.31"/><polyline class="cls-70" points="51.93 62.97 52.66 62.97 52.66 68.31 51.93 68.31"/><polyline class="cls-71" points="52.41 62.97 53.14 62.97 53.14 68.31 52.41 68.31"/><polyline class="cls-72" points="52.9 62.97 53.62 62.97 53.62 68.31 52.9 68.31"/><polyline class="cls-73" points="53.38 62.97 54.1 62.97 54.1 68.31 53.38 68.31"/><polyline class="cls-74" points="53.86 62.97 54.59 62.97 54.59 68.31 53.86 68.31"/><polyline class="cls-75" points="54.35 62.97 55.07 62.97 55.07 68.31 54.35 68.31"/><polyline class="cls-76" points="54.83 62.97 55.55 62.97 55.55 68.31 54.83 68.31"/><polyline class="cls-77" points="55.31 62.97 56.03 62.97 56.03 68.31 55.31 68.31"/><polyline class="cls-77" points="55.8 62.97 56.52 62.97 56.52 68.31 55.8 68.31"/><polyline class="cls-78" points="56.28 62.97 57 62.97 57 68.31 56.28 68.31"/><polyline class="cls-79" points="56.76 62.97 57.48 62.97 57.48 68.31 56.76 68.31"/><polyline class="cls-80" points="57.24 62.97 57.97 62.97 57.97 68.31 57.24 68.31"/><polyline class="cls-81" points="57.73 62.97 58.45 62.97 58.45 68.31 57.73 68.31"/><polyline class="cls-82" points="58.21 62.97 58.93 62.97 58.93 68.31 58.21 68.31"/><polyline class="cls-83" points="58.69 62.97 59.42 62.97 59.42 68.31 58.69 68.31"/><polyline class="cls-84" points="59.17 62.97 59.9 62.97 59.9 68.31 59.17 68.31"/><polyline class="cls-85" points="59.66 62.97 60.38 62.97 60.38 68.31 59.66 68.31"/><polyline class="cls-86" points="60.14 62.97 60.87 62.97 60.87 68.31 60.14 68.31"/><polyline class="cls-87" points="60.63 62.97 61.35 62.97 61.35 68.31 60.63 68.31"/><polyline class="cls-88" points="61.1 62.97 61.83 62.97 61.83 68.31 61.1 68.31"/><polyline class="cls-89" points="61.59 62.97 62.31 62.97 62.31 68.31 61.59 68.31"/><polyline class="cls-90" points="62.07 62.97 62.8 62.97 62.8 68.31 62.07 68.31"/><polyline class="cls-90" points="62.55 62.97 63.28 62.97 63.28 68.31 62.55 68.31"/><polyline class="cls-91" points="63.04 62.97 63.76 62.97 63.76 68.31 63.04 68.31"/><polyline class="cls-92" points="63.52 62.97 64.25 62.97 64.25 68.31 63.52 68.31"/><polyline class="cls-92" points="64 62.97 64.73 62.97 64.73 68.31 64 68.31"/><polyline class="cls-93" points="64.49 62.97 65.21 62.97 65.21 68.31 64.49 68.31"/><polyline class="cls-93" points="64.97 62.97 65.69 62.97 65.69 68.31 64.97 68.31"/><polyline class="cls-94" points="65.45 62.97 66.17 62.97 66.17 68.31 65.45 68.31"/><polyline class="cls-95" points="65.94 62.97 66.66 62.97 66.66 68.31 65.94 68.31"/><polyline class="cls-95" points="66.42 62.97 67.14 62.97 67.14 68.31 66.42 68.31"/><polyline class="cls-96" points="66.9 62.97 67.63 62.97 67.63 68.31 66.9 68.31"/><polyline class="cls-97" points="67.38 62.97 68.11 62.97 68.11 68.31 67.38 68.31"/><polyline class="cls-98" points="67.87 62.97 68.59 62.97 68.59 68.31 67.87 68.31"/><polyline class="cls-99" points="68.35 62.97 69.07 62.97 69.07 68.31 68.35 68.31"/><polyline class="cls-100" points="68.83 62.97 69.56 62.97 69.56 68.31 68.83 68.31"/><polyline class="cls-101" points="69.32 62.97 70.04 62.97 70.04 68.31 69.32 68.31"/><polyline class="cls-102" points="69.8 62.97 70.52 62.97 70.52 68.31 69.8 68.31"/><polyline class="cls-103" points="70.28 62.97 71.01 62.97 71.01 68.31 70.28 68.31"/><polyline class="cls-104" points="70.77 62.97 71.49 62.97 71.49 68.31 70.77 68.31"/><polyline class="cls-105" points="71.25 62.97 71.97 62.97 71.97 68.31 71.25 68.31"/><polyline class="cls-106" points="71.73 62.97 72.45 62.97 72.45 68.31 71.73 68.31"/><polyline class="cls-107" points="72.21 62.97 72.94 62.97 72.94 68.31 72.21 68.31"/><polyline class="cls-108" points="72.69 62.97 73.42 62.97 73.42 68.31 72.69 68.31"/><polyline class="cls-108" points="73.18 62.97 73.9 62.97 73.9 68.31 73.18 68.31"/><polyline class="cls-109" points="73.66 62.97 74.39 62.97 74.39 68.31 73.66 68.31"/><polyline class="cls-110" points="74.14 62.97 74.87 62.97 74.87 68.31 74.14 68.31"/><polyline class="cls-111" points="74.63 62.97 75.35 62.97 75.35 68.31 74.63 68.31"/><polyline class="cls-112" points="75.11 62.97 75.84 62.97 75.84 68.31 75.11 68.31"/><polyline class="cls-113" points="75.59 62.97 76.32 62.97 76.32 68.31 75.59 68.31"/><polyline class="cls-114" points="76.07 62.97 76.8 62.97 76.8 68.31 76.07 68.31"/><polyline class="cls-115" points="76.56 62.97 77.28 62.97 77.28 68.31 76.56 68.31"/><polyline class="cls-116" points="77.04 62.97 77.77 62.97 77.77 68.31 77.04 68.31"/><polyline class="cls-117" points="77.52 62.97 78.25 62.97 78.25 68.31 77.52 68.31"/><polyline class="cls-118" points="78.01 62.97 78.73 62.97 78.73 68.31 78.01 68.31"/><polyline class="cls-119" points="78.49 62.97 79.21 62.97 79.21 68.31 78.49 68.31"/><polyline class="cls-120" points="78.97 62.97 79.7 62.97 79.7 68.31 78.97 68.31"/><polyline class="cls-121" points="79.46 62.97 80.18 62.97 80.18 68.31 79.46 68.31"/><polyline class="cls-121" points="79.94 62.97 80.66 62.97 80.66 68.31 79.94 68.31"/><polyline class="cls-122" points="80.42 62.97 81.14 62.97 81.14 68.31 80.42 68.31"/><polyline class="cls-123" points="80.91 62.97 81.63 62.97 81.63 68.31 80.91 68.31"/><polyline class="cls-124" points="81.39 62.97 82.11 62.97 82.11 68.31 81.39 68.31"/><polyline class="cls-125" points="81.87 62.97 82.59 62.97 82.59 68.31 81.87 68.31"/><polyline class="cls-125" points="82.36 62.97 83.08 62.97 83.08 68.31 82.36 68.31"/><polyline class="cls-124" points="82.84 62.97 83.56 62.97 83.56 68.31 82.84 68.31"/><polyline class="cls-124" points="83.32 62.97 84.04 62.97 84.04 68.31 83.32 68.31"/><polyline class="cls-122" points="83.8 62.97 84.53 62.97 84.53 68.31 83.8 68.31"/><polyline class="cls-122" points="84.28 62.97 85.01 62.97 85.01 68.31 84.28 68.31"/><polyline class="cls-126" points="84.77 62.97 85.49 62.97 85.49 68.31 84.77 68.31"/><polyline class="cls-121" points="85.25 62.97 85.98 62.97 85.98 68.31 85.25 68.31"/><polyline class="cls-121" points="85.73 62.97 86.46 62.97 86.46 68.31 85.73 68.31"/><polyline class="cls-120" points="86.21 62.97 86.94 62.97 86.94 68.31 86.21 68.31"/><polyline class="cls-120" points="86.7 62.97 87.42 62.97 87.42 68.31 86.7 68.31"/><polyline class="cls-127" points="87.18 62.97 87.91 62.97 87.91 68.31 87.18 68.31"/><polyline class="cls-127" points="87.66 62.97 88.39 62.97 88.39 68.31 87.66 68.31"/><polyline class="cls-117" points="88.15 62.97 88.87 62.97 88.87 68.31 88.15 68.31"/><polyline class="cls-128" points="88.63 62.97 89.36 62.97 89.36 68.31 88.63 68.31"/><polyline class="cls-116" points="89.11 62.97 89.84 62.97 89.84 68.31 89.11 68.31"/><polyline class="cls-115" points="89.6 62.97 90.32 62.97 90.32 68.31 89.6 68.31"/><polyline class="cls-129" points="90.08 62.97 90.8 62.97 90.8 68.31 90.08 68.31"/><polyline class="cls-130" points="90.56 62.97 91.28 62.97 91.28 68.31 90.56 68.31"/><polyline class="cls-130" points="91.05 62.97 91.77 62.97 91.77 68.31 91.05 68.31"/><polyline class="cls-112" points="91.53 62.97 92.25 62.97 92.25 68.31 91.53 68.31"/><polyline class="cls-131" points="92.01 62.97 92.73 62.97 92.73 68.31 92.01 68.31"/><polyline class="cls-111" points="92.49 62.97 93.22 62.97 93.22 68.31 92.49 68.31"/><polyline class="cls-110" points="92.98 62.97 93.7 62.97 93.7 68.31 92.98 68.31"/><polyline class="cls-132" points="93.46 62.97 94.18 62.97 94.18 68.31 93.46 68.31"/><polyline class="cls-133" points="93.94 62.97 94.67 62.97 94.67 68.31 93.94 68.31"/><polyline class="cls-134" points="94.42 62.97 95.15 62.97 95.15 68.31 94.42 68.31"/><polyline class="cls-134" points="94.91 62.97 95.63 62.97 95.63 68.31 94.91 68.31"/><polyline class="cls-135" points="95.39 62.97 96.12 62.97 96.12 68.31 95.39 68.31"/><polyline class="cls-107" points="95.88 62.97 96.6 62.97 96.6 68.31 95.88 68.31"/><polyline class="cls-136" points="96.36 62.97 97.08 62.97 97.08 68.31 96.36 68.31"/><polyline class="cls-137" points="96.84 62.97 97.56 62.97 97.56 68.31 96.84 68.31"/><polyline class="cls-138" points="97.32 62.97 98.05 62.97 98.05 68.31 97.32 68.31"/><polyline class="cls-139" points="97.8 62.97 98.53 62.97 98.53 68.31 97.8 68.31"/><polyline class="cls-139" points="98.29 62.97 99.01 62.97 99.01 68.31 98.29 68.31"/><polyline class="cls-140" points="98.77 62.97 99.5 62.97 99.5 68.31 98.77 68.31"/><polyline class="cls-140" points="99.25 62.97 99.98 62.97 99.98 68.31 99.25 68.31"/><polyline class="cls-141" points="99.74 62.97 100.46 62.97 100.46 68.31 99.74 68.31"/><polyline class="cls-141" points="100.22 62.97 100.94 62.97 100.94 68.31 100.22 68.31"/><polyline class="cls-142" points="100.7 62.97 101.42 62.97 101.42 68.31 100.7 68.31"/><polyline class="cls-143" points="101.19 62.97 101.91 62.97 101.91 68.31 101.19 68.31"/><polyline class="cls-143" points="101.67 62.97 102.39 62.97 102.39 68.31 101.67 68.31"/><polyline class="cls-144" points="102.15 62.97 102.88 62.97 102.88 68.31 102.15 68.31"/><polyline class="cls-145" points="102.63 62.97 103.36 62.97 103.36 68.31 102.63 68.31"/><polyline class="cls-146" points="103.12 62.97 103.84 62.97 103.84 68.31 103.12 68.31"/><polyline class="cls-146" points="103.6 62.97 104.32 62.97 104.32 68.31 103.6 68.31"/><polyline class="cls-147" points="104.08 62.97 104.81 62.97 104.81 68.31 104.08 68.31"/><polyline class="cls-147" points="104.57 62.97 105.29 62.97 105.29 68.31 104.57 68.31"/><polyline class="cls-147" points="105.05 62.97 105.77 62.97 105.77 68.31 105.05 68.31"/><polyline class="cls-148" points="105.53 62.97 106.26 62.97 106.26 68.31 105.53 68.31"/><polyline class="cls-149" points="106.02 62.97 106.74 62.97 106.74 68.31 106.02 68.31"/><polyline class="cls-150" points="106.5 62.97 107.22 62.97 107.22 68.31 106.5 68.31"/><polyline class="cls-150" points="106.98 62.97 107.7 62.97 107.7 68.31 106.98 68.31"/><polyline class="cls-151" points="107.46 62.97 108.19 62.97 108.19 68.31 107.46 68.31"/><polyline class="cls-151" points="107.94 62.97 108.67 62.97 108.67 68.31 107.94 68.31"/><polyline class="cls-152" points="108.43 62.97 109.15 62.97 109.15 68.31 108.43 68.31"/><polyline class="cls-153" points="108.91 62.97 109.64 62.97 109.64 68.31 108.91 68.31"/><polyline class="cls-154" points="109.39 62.97 110.12 62.97 110.12 68.31 109.39 68.31"/><polyline class="cls-155" points="109.88 62.97 110.6 62.97 110.6 68.31 109.88 68.31"/><polyline class="cls-155" points="110.36 62.97 111.09 62.97 111.09 68.31 110.36 68.31"/><polyline class="cls-156" points="110.84 62.97 111.57 62.97 111.57 68.31 110.84 68.31"/><polyline class="cls-156" points="111.32 62.97 112.05 62.97 112.05 68.31 111.32 68.31"/><polyline class="cls-157" points="111.81 62.97 112.53 62.97 112.53 68.31 111.81 68.31"/><polyline class="cls-158" points="112.29 62.97 113.02 62.97 113.02 68.31 112.29 68.31"/><polyline class="cls-159" points="112.77 62.97 113.5 62.97 113.5 68.31 112.77 68.31"/><polyline class="cls-160" points="113.26 62.97 113.98 62.97 113.98 68.31 113.26 68.31"/><polyline class="cls-161" points="113.74 62.97 114.46 62.97 114.46 68.31 113.74 68.31"/><polyline class="cls-162" points="114.22 62.97 114.95 62.97 114.95 68.31 114.22 68.31"/><polyline class="cls-163" points="114.71 62.97 115.43 62.97 115.43 68.31 114.71 68.31"/><polyline class="cls-164" points="115.19 62.97 115.91 62.97 115.91 68.31 115.19 68.31"/><polyline class="cls-165" points="115.67 62.97 116.39 62.97 116.39 68.31 115.67 68.31"/><polyline class="cls-166" points="116.16 62.97 116.88 62.97 116.88 68.31 116.16 68.31"/><polyline class="cls-167" points="116.64 62.97 117.36 62.97 117.36 68.31 116.64 68.31"/><polyline class="cls-168" points="117.12 62.97 117.84 62.97 117.84 68.31 117.12 68.31"/><polyline class="cls-169" points="117.61 62.97 118.33 62.97 118.33 68.31 117.61 68.31"/><polyline class="cls-170" points="118.09 62.97 118.81 62.97 118.81 68.31 118.09 68.31"/><polyline class="cls-171" points="118.57 62.97 119.29 62.97 119.29 68.31 118.57 68.31"/><polyline class="cls-172" points="119.05 62.97 119.78 62.97 119.78 68.31 119.05 68.31"/><polyline class="cls-172" points="119.53 62.97 120.26 62.97 120.26 68.31 119.53 68.31"/><polyline class="cls-173" points="120.02 62.97 120.74 62.97 120.74 68.31 120.02 68.31"/><polyline class="cls-174" points="120.5 62.97 121.23 62.97 121.23 68.31 120.5 68.31"/><polyline class="cls-175" points="120.98 62.97 121.71 62.97 121.71 68.31 120.98 68.31"/><polyline class="cls-176" points="121.47 62.97 122.19 62.97 122.19 68.31 121.47 68.31"/><polyline class="cls-176" points="121.95 62.97 122.67 62.97 122.67 68.31 121.95 68.31"/><polyline class="cls-177" points="122.43 62.97 123.16 62.97 123.16 68.31 122.43 68.31"/><polyline class="cls-177" points="122.91 62.97 123.64 62.97 123.64 68.31 122.91 68.31"/><polyline class="cls-178" points="123.4 62.97 124.12 62.97 124.12 68.31 123.4 68.31"/><polyline class="cls-178" points="123.88 62.97 124.61 62.97 124.61 68.31 123.88 68.31"/><polyline class="cls-179" points="124.36 62.97 125.09 62.97 125.09 68.31 124.36 68.31"/><polyline class="cls-180" points="124.85 62.97 125.57 62.97 125.57 68.31 124.85 68.31"/><polyline class="cls-180" points="125.33 62.97 126.05 62.97 126.05 68.31 125.33 68.31"/><polyline class="cls-181" points="125.81 62.97 126.53 62.97 126.53 68.31 125.81 68.31"/><polyline class="cls-181" points="126.3 62.97 127.02 62.97 127.02 68.31 126.3 68.31"/><polyline class="cls-182" points="126.78 62.97 127.5 62.97 127.5 68.31 126.78 68.31"/><polyline class="cls-182" points="127.26 62.97 127.98 62.97 127.98 68.31 127.26 68.31"/><polyline class="cls-183" points="127.75 62.97 128.47 62.97 128.47 68.31 127.75 68.31"/><polyline class="cls-183" points="128.23 62.97 128.95 62.97 128.95 68.31 128.23 68.31"/><polyline class="cls-184" points="128.71 62.97 129.43 62.97 129.43 68.31 128.71 68.31"/><polyline class="cls-185" points="129.19 62.97 129.92 62.97 129.92 68.31 129.19 68.31"/><polyline class="cls-186" points="129.68 62.97 130.4 62.97 130.4 68.31 129.68 68.31"/><polyline class="cls-187" points="130.16 62.97 130.88 62.97 130.88 68.31 130.16 68.31"/><polyline class="cls-187" points="130.64 62.97 131.37 62.97 131.37 68.31 130.64 68.31"/><polyline class="cls-188" points="131.13 62.97 131.85 62.97 131.85 68.31 131.13 68.31"/><polyline class="cls-188" points="131.6 62.97 132.33 62.97 132.33 68.31 131.6 68.31"/><polyline class="cls-189" points="132.09 62.97 132.82 62.97 132.82 68.31 132.09 68.31"/><polyline class="cls-190" points="132.57 62.97 133.3 62.97 133.3 68.31 132.57 68.31"/><polyline class="cls-191" points="133.05 62.97 133.78 62.97 133.78 68.31 133.05 68.31"/><polyline class="cls-192" points="133.54 62.97 134.26 62.97 134.26 68.31 133.54 68.31"/><polyline class="cls-193" points="134.02 62.97 134.75 62.97 134.75 68.31 134.02 68.31"/><polyline class="cls-194" points="134.5 62.97 135.23 62.97 135.23 68.31 134.5 68.31"/><polyline class="cls-195" points="134.99 62.97 135.71 62.97 135.71 68.31 134.99 68.31"/><polyline class="cls-196" points="135.47 62.97 136.19 62.97 136.19 68.31 135.47 68.31"/><polyline class="cls-197" points="135.95 62.97 136.68 62.97 136.68 68.31 135.95 68.31"/><polyline class="cls-198" points="136.44 62.97 137.16 62.97 137.16 68.31 136.44 68.31"/><polyline class="cls-199" points="136.92 62.97 137.64 62.97 137.64 68.31 136.92 68.31"/><polyline class="cls-200" points="137.4 62.97 138.13 62.97 138.13 68.31 137.4 68.31"/><polyline class="cls-201" points="137.88 62.97 138.61 62.97 138.61 68.31 137.88 68.31"/><polyline class="cls-202" points="138.37 62.97 139.09 62.97 139.09 68.31 138.37 68.31"/><polyline class="cls-203" points="138.85 62.97 139.57 62.97 139.57 68.31 138.85 68.31"/><polyline class="cls-204" points="139.33 62.97 140.06 62.97 140.06 68.31 139.33 68.31"/><polyline class="cls-205" points="139.82 62.97 140.54 62.97 140.54 68.31 139.82 68.31"/><polyline class="cls-206" points="140.3 62.97 141.02 62.97 141.02 68.31 140.3 68.31"/><polyline class="cls-207" points="140.78 62.97 141.51 62.97 141.51 68.31 140.78 68.31"/><polyline class="cls-208" points="141.26 62.97 141.99 62.97 141.99 68.31 141.26 68.31"/><polyline class="cls-209" points="141.75 62.97 142.47 62.97 142.47 68.31 141.75 68.31"/><polyline class="cls-210" points="142.23 62.97 142.95 62.97 142.95 68.31 142.23 68.31"/><polyline class="cls-211" points="142.71 62.97 143.44 62.97 143.44 68.31 142.71 68.31"/><polyline class="cls-212" points="143.19 62.97 143.92 62.97 143.92 68.31 143.19 68.31"/><polyline class="cls-213" points="143.68 62.97 144.4 62.97 144.4 68.31 143.68 68.31"/><polyline class="cls-214" points="144.16 62.97 144.89 62.97 144.89 68.31 144.16 68.31"/><polyline class="cls-215" points="144.64 62.97 145.37 62.97 145.37 68.31 144.64 68.31"/><polyline class="cls-216" points="145.13 62.97 145.85 62.97 145.85 68.31 145.13 68.31"/><polyline class="cls-217" points="145.61 62.97 146.34 62.97 146.34 68.31 145.61 68.31"/><polyline class="cls-218" points="146.09 62.97 147.06 62.97 147.06 68.31 146.09 68.31"/></g></g></g><path class="cls-219" d="M34.11,65.36v.8h-4v-.8Zm6.38,0v.8h-4v-.8Zm6.38,0v.8h-4v-.8Zm6.38,0v.8h-4v-.8Zm6.38,0v.8h-4v-.8Zm6.38,0v.8H62v-.8Zm6.38,0v.8h-4v-.8Zm6.38,0v.8h-4v-.8Zm6.38,0v.8h-4v-.8Zm6.38,0v.8h-4v-.8Zm6.38,0v.8h-4v-.8Zm6.38,0v.8h-4v-.8Zm6.38,0v.8h-4v-.8Zm6.38,0v.8h-4v-.8Zm6.38,0v.8h-4v-.8Zm6.37,0v.8h-4v-.8Zm6.38,0v.8h-4v-.8Zm6.38,0v.8h-4v-.8Zm-118.73.8a2.58,2.58,0,0,1,0-.8h4v.8Zm123.56-.8a2.58,2.58,0,0,1,0,.8H144.9v-.8Z" transform="translate(-0.31 -0.12)"/><text class="cls-220" transform="translate(22.96 77.65)">ALWAYS DELIVERY ON TIME</text></g></g></svg>